<?xml version="1.0" encoding="us-ascii" standalone="no"?><svg xmlns="http://www.w3.org/2000/svg" xmlns:xlink="http://www.w3.org/1999/xlink" contentStyleType="text/css" height="193px" preserveAspectRatio="none" style="width:141px;height:193px;background:#FFFFFF;" version="1.1" viewBox="0 0 141 193" width="141px" zoomAndPan="magnify"><defs/><g><!--entity PortariaCarro--><g id="elem_PortariaCarro"><path d="M14.555,16.5323 C17.0571,9.8412 22.6879,9.3889 26.8716,14.8244 C29.8301,10.4579 34.8017,10.0894 36.998,15.6054 C39.3685,9.5836 44.7233,9.5157 48.5913,13.9443 C51.7655,7.2896 57.1138,7.1792 60.7118,13.55 C63.3541,9.313 66.2164,8.847 69.7608,12.5177 C73.5601,6 77.4982,7.6035 81.5651,12.2343 C86.4576,7.384 90.5987,8.792 93.0844,14.79 C96.1435,9.4473 99.9232,9.8215 103.1576,14.6157 C107.4159,10.1544 111.6897,9.6064 114.68,15.9659 C117.9724,9.9279 121.9273,9.9815 125.6132,15.5966 C132.4778,19.0094 134.9213,26.627 126.7586,31.1467 C134.4545,35.9564 133.9854,41.7422 126.571,46.3656 C123.6679,52.4166 119.0972,52.1592 115.6897,46.8486 C111.4761,53.1044 107.5308,51.4644 103.8881,46.2606 C100.6538,52.4623 96.2753,53.0288 91.6091,47.7985 C88.7395,51.9741 84.7024,52.0413 81.6937,47.9655 C79.9018,53.4578 74.9698,53.4435 71.589,49.705 C66.7672,55.7441 62.7615,54.8514 59.2459,48.4129 C54.6276,54.187 50.6519,53.3354 47.7611,46.8011 C45.3819,52.0473 40.7584,52.1517 38.0162,47.1461 C34.8293,52.8639 28.8452,52.8001 26.0527,46.7453 C22.2675,50.4104 18.2413,49.8247 15.7775,45.1227 C8.8294,42.324 6.6036,36.9489 12.0675,30.9103 C6,25.4523 6.5878,19.5621 14.555,16.5323 " fill="#F1F1F1" style="stroke:#181818;stroke-width:0.5;"/><text fill="#000000" font-family="sans-serif" font-size="14" lengthAdjust="spacing" textLength="96" x="21.5342" y="34.7363">PortariaCarro</text></g><!--entity Producer--><g id="elem_Producer"><polygon fill="#F1F1F1" points="17.5342,139.7412,27.5342,129.7412,121.5342,129.7412,121.5342,166.0381,111.5342,176.0381,17.5342,176.0381,17.5342,139.7412" style="stroke:#181818;stroke-width:0.5;"/><line style="stroke:#181818;stroke-width:0.5;" x1="111.5342" x2="121.5342" y1="139.7412" y2="129.7412"/><line style="stroke:#181818;stroke-width:0.5;" x1="17.5342" x2="111.5342" y1="139.7412" y2="139.7412"/><line style="stroke:#181818;stroke-width:0.5;" x1="111.5342" x2="111.5342" y1="139.7412" y2="176.0381"/><text fill="#000000" font-family="sans-serif" font-size="14" lengthAdjust="spacing" textLength="64" x="32.5342" y="162.7363">Producer</text></g><!--link PortariaCarro to Producer--><g id="link_PortariaCarro_Producer"><path d="M69.5342,52.9342 C69.5342,74.7672 69.5342,101.9051 69.5342,123.6886 " fill="none" id="PortariaCarro-to-Producer" style="stroke:#181818;stroke-width:2.0;"/><polygon fill="#181818" points="69.5342,129.6886,73.5342,120.6886,69.5342,124.6886,65.5342,120.6886,69.5342,129.6886" style="stroke:#181818;stroke-width:2.0;"/><text fill="#000000" font-family="sans-serif" font-size="13" lengthAdjust="spacing" textLength="36" x="70.5342" y="95.8081">[json]</text></g><!--SRC=[Iyx9BqrH2CWlAaaioanqJYmgokVAoqz9LGWeoayfJKujuaAHKz2DJihFIOdLjOChK51Gi5A8pYhEpui50000]--></g></svg>