<?xml version="1.0" encoding="us-ascii" standalone="no"?><svg xmlns="http://www.w3.org/2000/svg" xmlns:xlink="http://www.w3.org/1999/xlink" contentStyleType="text/css" height="509px" preserveAspectRatio="none" style="width:333px;height:509px;background:#FFFFFF;" version="1.1" viewBox="0 0 333 509" width="333px" zoomAndPan="magnify"><defs/><g><!--entity PortariaCarro--><g id="elem_PortariaCarro"><path d="M14.555,16.5323 C17.0571,9.8412 22.6879,9.3889 26.8716,14.8244 C29.8301,10.4579 34.8017,10.0894 36.998,15.6054 C39.3685,9.5836 44.7233,9.5157 48.5913,13.9443 C51.7655,7.2896 57.1138,7.1792 60.7118,13.55 C63.3541,9.313 66.2164,8.847 69.7608,12.5177 C73.5601,6 77.4982,7.6035 81.5651,12.2343 C86.4576,7.384 90.5987,8.792 93.0844,14.79 C96.1435,9.4473 99.9232,9.8215 103.1576,14.6157 C107.4159,10.1544 111.6897,9.6064 114.68,15.9659 C117.9724,9.9279 121.9273,9.9815 125.6132,15.5966 C132.4778,19.0094 134.9213,26.627 126.7586,31.1467 C134.4545,35.9564 133.9854,41.7422 126.571,46.3656 C123.6679,52.4166 119.0972,52.1592 115.6897,46.8486 C111.4761,53.1044 107.5308,51.4644 103.8881,46.2606 C100.6538,52.4623 96.2753,53.0288 91.6091,47.7985 C88.7395,51.9741 84.7024,52.0413 81.6937,47.9655 C79.9018,53.4578 74.9698,53.4435 71.589,49.705 C66.7672,55.7441 62.7615,54.8514 59.2459,48.4129 C54.6276,54.187 50.6519,53.3354 47.7611,46.8011 C45.3819,52.0473 40.7584,52.1517 38.0162,47.1461 C34.8293,52.8639 28.8452,52.8001 26.0527,46.7453 C22.2675,50.4104 18.2413,49.8247 15.7775,45.1227 C8.8294,42.324 6.6036,36.9489 12.0675,30.9103 C6,25.4523 6.5878,19.5621 14.555,16.5323 " fill="#F1F1F1" style="stroke:#181818;stroke-width:0.5;"/><text fill="#000000" font-family="sans-serif" font-size="14" lengthAdjust="spacing" textLength="96" x="21.5342" y="34.7363">PortariaCarro</text></g><!--entity PortariaPedestre--><g id="elem_PortariaPedestre"><path d="M177.2095,16.0921 C180.5702,10.8694 184.0995,9.8288 188.1597,15.3814 C191.0937,9.3714 194.363,9.0686 198.8284,13.8703 C202.9843,9.3444 207.4118,8.6284 210.7787,14.7554 C214.1025,8.5242 219.159,8.3779 222.697,14.5497 C225.4223,8.9514 230.5339,8.9411 234.2724,13.3815 C236.5704,8.1136 241.4712,7.1336 245.4108,11.4796 C249.3434,6.529 254.8452,7.35 256.8095,13.5006 C260.0705,7.8344 264.2221,7.8002 268.181,12.7533 C272.0575,7.9938 275.5738,9.2159 277.7627,14.3823 C282.0657,7.8092 286.2209,7.4187 290.7989,14.1122 C295.6141,8.9675 299.3965,9.4293 301.9878,16.2005 C304.4727,11.9475 309.4649,10.8928 312.097,16.0422 C319.7676,18.6608 322.0777,24.6203 315.7014,30.6945 C322.5251,36.8946 320.4445,43.3678 312.0198,45.8681 C309.0304,50.9443 304.2525,51.4533 301.1553,45.9792 C298.2534,51.3998 293.0577,52.2712 289.468,46.7113 C286.7294,51.8505 283.5294,52.1971 279.1594,48.6468 C275.7419,53.7291 272.1588,54.8422 268.3082,49.0803 C265.044,53.8976 259.6778,54.1324 256.8174,48.6306 C253.573,55.4334 248.9044,55.5256 243.726,50.833 C239.6004,54.7583 235.776,54.8439 233.2943,49.0658 C229.7662,54.7933 224.7576,54.2063 221.3606,48.9238 C217.0018,52.8977 212.9611,52.6232 210.0631,47.1727 C206.9667,52.7592 202.3782,54.1734 198.3152,48.1509 C194.6587,52.4335 189.0055,52.8091 186.976,46.4218 C183.8686,50.9182 180.6404,50.7131 177.2483,46.7493 C166.8838,45.6859 164.686,40.578 168.1356,31.3435 C164.272,23.3624 168.5691,16.6339 177.2095,16.0921 " fill="#F1F1F1" style="stroke:#181818;stroke-width:0.5;"/><text fill="#000000" font-family="sans-serif" font-size="14" lengthAdjust="spacing" textLength="122" x="182.5342" y="34.7363">PortariaPedestre</text></g><!--entity Producer--><g id="elem_Producer"><polygon fill="#F1F1F1" points="104.5342,139.7412,114.5342,129.7412,208.5342,129.7412,208.5342,166.0381,198.5342,176.0381,104.5342,176.0381,104.5342,139.7412" style="stroke:#181818;stroke-width:0.5;"/><line style="stroke:#181818;stroke-width:0.5;" x1="198.5342" x2="208.5342" y1="139.7412" y2="129.7412"/><line style="stroke:#181818;stroke-width:0.5;" x1="104.5342" x2="198.5342" y1="139.7412" y2="139.7412"/><line style="stroke:#181818;stroke-width:0.5;" x1="198.5342" x2="198.5342" y1="139.7412" y2="176.0381"/><text fill="#000000" font-family="sans-serif" font-size="14" lengthAdjust="spacing" textLength="64" x="119.5342" y="162.7363">Producer</text></g><!--entity RabbitMQ--><g id="elem_RabbitMQ"><path d="M115.5342,236.7412 L197.5342,236.7412 C202.5342,236.7412 202.5342,249.8896 202.5342,249.8896 C202.5342,249.8896 202.5342,263.0381 197.5342,263.0381 L115.5342,263.0381 C110.5342,263.0381 110.5342,249.8896 110.5342,249.8896 C110.5342,249.8896 110.5342,236.7412 115.5342,236.7412 " fill="#F1F1F1" style="stroke:#181818;stroke-width:0.5;"/><path d="M197.5342,236.7412 C192.5342,236.7412 192.5342,249.8896 192.5342,249.8896 C192.5342,263.0381 197.5342,263.0381 197.5342,263.0381 " fill="none" style="stroke:#181818;stroke-width:0.5;"/><text fill="#000000" font-family="sans-serif" font-size="14" lengthAdjust="spacing" textLength="72" x="115.5342" y="254.7363">RabbitMQ</text></g><!--entity Consumer--><g id="elem_Consumer"><polygon fill="#F1F1F1" points="100.5342,333.7412,110.5342,323.7412,212.5342,323.7412,212.5342,360.0381,202.5342,370.0381,100.5342,370.0381,100.5342,333.7412" style="stroke:#181818;stroke-width:0.5;"/><line style="stroke:#181818;stroke-width:0.5;" x1="202.5342" x2="212.5342" y1="333.7412" y2="323.7412"/><line style="stroke:#181818;stroke-width:0.5;" x1="100.5342" x2="202.5342" y1="333.7412" y2="333.7412"/><line style="stroke:#181818;stroke-width:0.5;" x1="202.5342" x2="202.5342" y1="333.7412" y2="370.0381"/><text fill="#000000" font-family="sans-serif" font-size="14" lengthAdjust="spacing" textLength="72" x="115.5342" y="356.7363">Consumer</text></g><!--entity MySQL--><g id="elem_MySQL"><path d="M122.5342,456.7412 C122.5342,446.7412 156.5342,446.7412 156.5342,446.7412 C156.5342,446.7412 190.5342,446.7412 190.5342,456.7412 L190.5342,482.0381 C190.5342,492.0381 156.5342,492.0381 156.5342,492.0381 C156.5342,492.0381 122.5342,492.0381 122.5342,482.0381 L122.5342,456.7412 " fill="#F1F1F1" style="stroke:#181818;stroke-width:0.5;"/><path d="M122.5342,456.7412 C122.5342,466.7412 156.5342,466.7412 156.5342,466.7412 C156.5342,466.7412 190.5342,466.7412 190.5342,456.7412 " fill="none" style="stroke:#181818;stroke-width:0.5;"/><text fill="#000000" font-family="sans-serif" font-size="14" lengthAdjust="spacing" textLength="48" x="132.5342" y="483.7363">MySQL</text></g><!--link PortariaCarro to Producer--><g id="link_PortariaCarro_Producer"><path d="M85.4913,52.9342 C101.1889,74.7672 121.5125,103.0338 137.1755,124.8168 " fill="none" id="PortariaCarro-to-Producer" style="stroke:#181818;stroke-width:2.0;"/><polygon fill="#181818" points="140.6782,129.6882,138.6717,120.0459,137.7593,125.6287,132.1765,124.7162,140.6782,129.6882" style="stroke:#181818;stroke-width:2.0;"/><text fill="#000000" font-family="sans-serif" font-size="13" lengthAdjust="spacing" textLength="36" x="119.5342" y="95.8081">[json]</text></g><!--link PortariaPedestre to Producer--><g id="link_PortariaPedestre_Producer"><path d="M227.5772,52.9342 C211.8792,74.7672 191.556,103.0338 175.893,124.8168 " fill="none" id="PortariaPedestre-to-Producer" style="stroke:#FF0000;stroke-width:4.0;"/><polygon fill="#FF0000" points="172.3902,129.6882,180.892,124.7162,175.3092,125.6287,174.3968,120.0459,172.3902,129.6882" style="stroke:#FF0000;stroke-width:4.0;"/><text fill="#000000" font-family="sans-serif" font-size="13" lengthAdjust="spacing" textLength="120" x="205.5342" y="95.8081">[not implemented]</text></g><!--link Producer to RabbitMQ--><g id="link_Producer_RabbitMQ"><path d="M156.5342,175.7752 C156.5342,194.7402 156.5342,215.3952 156.5342,230.6852 " fill="none" id="Producer-to-RabbitMQ" style="stroke:#181818;stroke-width:2.0;"/><polygon fill="#181818" points="156.5342,236.6852,160.5342,227.6852,156.5342,231.6852,152.5342,227.6852,156.5342,236.6852" style="stroke:#181818;stroke-width:2.0;"/></g><!--link RabbitMQ to Consumer--><g id="link_RabbitMQ_Consumer"><path d="M156.5342,262.7732 C156.5342,278.0512 156.5342,298.7022 156.5342,317.6762 " fill="none" id="RabbitMQ-to-Consumer" style="stroke:#181818;stroke-width:2.0;"/><polygon fill="#181818" points="156.5342,323.6762,160.5342,314.6762,156.5342,318.6762,152.5342,314.6762,156.5342,323.6762" style="stroke:#181818;stroke-width:2.0;"/></g><!--link Consumer to MySQL--><g id="link_Consumer_MySQL"><path d="M156.5342,369.8432 C156.5342,391.7212 156.5342,418.9992 156.5342,440.6852 " fill="none" id="Consumer-to-MySQL" style="stroke:#0000FF;stroke-width:1.0;"/><polygon fill="#0000FF" points="156.5342,446.6852,160.5342,437.6852,156.5342,441.6852,152.5342,437.6852,156.5342,446.6852" style="stroke:#0000FF;stroke-width:1.0;"/><text fill="#000000" font-family="sans-serif" font-size="13" lengthAdjust="spacing" textLength="35" x="157.5342" y="412.8081">[SQL]</text></g><!--SRC=[PO-n3i8m34JtV8KbLhen8S7I5QGMngf34biYqCRW90D_JrhKLeN9bfzzTxOT9uIA9MfnkjGYhEngLX5IY4BACn9KmfWiYNebIWGNROoBv_eBI_OXzHcYZjheG71-N-kJMib3qHZki2sEinW0xA6v1_Qj-hNDwniXtCQRimzF8Hns_wUU8xZ-sL5FFX9cbGalPbFKVA7cVi5pzgaPZ4sNQ83Z6wDJhkq7]--></g></svg>